<?xml version="1.0" encoding="utf-8"?>
<!-- Generator: Adobe Illustrator 15.1.0, SVG Export Plug-In . SVG Version: 6.00 Build 0)  -->
<!DOCTYPE svg PUBLIC "-//W3C//DTD SVG 1.1//EN" "http://www.w3.org/Graphics/SVG/1.1/DTD/svg11.dtd">
<svg version="1.1"
	 id="Layer_1" color-rendering="auto" image-rendering="auto" shape-rendering="auto" text-rendering="auto" color-interpolation="auto"
	 xmlns="http://www.w3.org/2000/svg" xmlns:xlink="http://www.w3.org/1999/xlink" x="0px" y="0px" width="612px" height="792px"
	 viewBox="0 0 280 156" xml:space="preserve">
<g>
	<g>
		<path d="M279.844,77.625c-14.062,25.406-33.656,44.812-58.781,58.219c-24,12.844-51,19.266-81,19.266
			c-30.094,0-57.094-6.422-81-19.266C33.938,122.438,14.25,103.031,0,77.625c14.344-25.5,33.984-44.953,58.922-58.359
			C82.828,6.422,109.875,0,140.062,0c30.094,0,57.094,6.422,81,19.266C246.188,32.672,265.781,52.125,279.844,77.625z
			 M253.266,77.625c-18.375-32.25-47.344-51.656-86.906-58.219c11.812,5.062,21.234,12.82,28.266,23.273
			s10.547,22.102,10.547,34.945c0,12.562-3.469,24.094-10.406,34.594s-16.172,18.328-27.703,23.484
			C206.344,129.047,235.078,109.688,253.266,77.625z M191.672,77.625c0-14.156-5.086-26.133-15.258-35.93S154.078,27,139.922,27
			c-7.406,0-14.531,1.547-21.375,4.641l-5.344-12.234c-39.469,6.75-68.344,26.156-86.625,58.219
			c18.188,31.969,46.875,51.328,86.062,58.078c-11.531-5.156-20.742-12.984-27.633-23.484S74.672,90.188,74.672,77.625
			c0-7.688,1.359-15.188,4.078-22.5l13.078,4.078c-2.438,6.094-3.656,12.234-3.656,18.422c0,14.156,5.062,26.133,15.188,35.93
			s22.312,14.695,36.562,14.695s26.438-4.898,36.562-14.695S191.672,91.781,191.672,77.625z M179.016,77.625
			c0,10.688-3.844,19.758-11.531,27.211s-16.875,11.18-27.562,11.18c-10.781,0-19.992-3.727-27.633-11.18
			s-11.461-16.523-11.461-27.211c0-4.781,0.797-9.281,2.391-13.5l39.938,18.141l-18.703-39.656
			c5.062-2.25,10.219-3.375,15.469-3.375c10.688,0,19.875,3.727,27.562,11.18S179.016,66.938,179.016,77.625z"/>
	</g>
</g>
</svg>
